# xmcd CD database file
#
# Track frame offsets:
#	150
#	35572
#	58187
#	79433
#	92868
#	119359
#	146362
#	166387
#	184827
#	222676
#	246688
#	269115
#
# Disc length: 3882 seconds
#
# Revision: 0
# Processed by: cddbd v1.5.2PL0 Copyright (c) Steve Scherf et al.
# Submitted via: CDex 1.51
#
DISCID=c60f280c
DTITLE=KLUBOWE GRANIE - nujazz
DYEAR=2006
DGENRE=Jazz
TTITLE0=Island Groove - Blue Harbour
TTITLE1=Georgio Schultz - Blossom
TTITLE2=Donati - E' Preciso Perdoar
TTITLE3=Jazzamor - Space Cowboy
TTITLE4=Wei Chi - Heaven
TTITLE5=BellCrash - White Jazz
TTITLE6=Saint Privat - Rokoko
TTITLE7=Povo feat. Mark Linn - Hot Lips
TTITLE8=Pasta Boys - Free Your Mind
TTITLE9=S-TOne Inc. - Dreamer
TTITLE10=Create Soul Brothers - Flying Down To Rio
TTITLE11=Malena - No Me Digas Nada
EXTD=YEAR: 2006
EXTT0=
EXTT1=
EXTT2=
EXTT3=
EXTT4=
EXTT5=
EXTT6=
EXTT7=
EXTT8=
EXTT9=
EXTT10=
EXTT11=
PLAYORDER=
